# xmcd
#
# Track frame offsets: 
#        182
#        12792
#        25767
#        38685
#        51897
#        61815
#        73445
#        84022
#        106775
#        119425
#        131062
#        147040
#        159600
#        171552
#        185772
#        194135
#        207427
#        220777
#        234370
#        248177
#        261762
#        272827
#        285897
#        296960
#        310667
#        323330
#
# Disc length: 4461 seconds
#
# Revision: 6
# Processed by: cddbd v1.5.2PL0 Copyright (c) Steve Scherf et al.
# Submitted via: ExactAudioCopyFreeDBPlugin 1.0
#
DISCID=80116b1a
DTITLE=Elmore James - King of the Slide Guitars:  The Fire - Fury - En
DTITLE=joy Recordings [Capricorn box set]
DYEAR=1992
DGENRE=Blues
TTITLE0=The Sky is Crying
TTITLE1=Baby Please Set a Date
TTITLE2=Held My Baby Last Night
TTITLE3=Dust My Broom
TTITLE4=Bobby's Rock
TTITLE5=Rollin' and Tumblin'
TTITLE6=Done Somebody Wrong
TTITLE7=Something Inside of Me
TTITLE8=I'm Worried
TTITLE9=Fine Little Mama
TTITLE10=I Need You
TTITLE11=Early One Morning
TTITLE12=I Can't Stop Loving You
TTITLE13=Strange Angel
TTITLE14=She Done Moved
TTITLE15=My Baby's Gone
TTITLE16=Stranger Blues
TTITLE17=Anna Lee
TTITLE18=(My) Bleeding Heart
TTITLE19=Standing at the Crossroads
TTITLE20=One Way Out
TTITLE21=My Kind of Woman
TTITLE22=Person to Person
TTITLE23=Find My Kind of Woman (alternate take)
TTITLE24=Find My Kind of Woman
TTITLE25=So Unkind
EXTD=YEAR: 1992
EXTT0=
EXTT1=
EXTT2=
EXTT3=
EXTT4=
EXTT5=
EXTT6=
EXTT7=
EXTT8=
EXTT9=
EXTT10=
EXTT11=
EXTT12=
EXTT13=
EXTT14=
EXTT15=
EXTT16=
EXTT17=
EXTT18=
EXTT19=
EXTT20=
EXTT21=
EXTT22=
EXTT23=
EXTT24=
EXTT25=
PLAYORDER=
